# xmcd
#
# Track frame offsets:
#	150
#	17554
#	34205
#	50751
#	66950
#	79182
#	97436
#	108902
#	123510
#	139342
#	155541
#
# Disc length: 2271 seconds
# Revision: 0
# Processed by: cddbd v1.5.2PL0 Copyright (c) Steve Scherf et al.
# Submitted via: dBpowerAMP V12.0
#
DISCID=9e08dd0b
DTITLE=Chris Coole and Ivan Rosenberg - Farewell Trion
DYEAR=2009
DGENRE=Folk
TTITLE0=John Hardy
TTITLE1=Carolyn Sanaskol
TTITLE2=Roustabout
TTITLE3=Cannonball Blues
TTITLE4=Vole in the Gown
TTITLE5=Willie Duncan
TTITLE6=In the Garden
TTITLE7=Boat's Up the River
TTITLE8=Walking Boss
TTITLE9=Going Across the Sea
TTITLE10=Farewell Trion
EXTD=
EXTT0=
EXTT1=
EXTT2=
EXTT3=
EXTT4=
EXTT5=
EXTT6=
EXTT7=
EXTT8=
EXTT9=
EXTT10=
PLAYORDER=
